<svg width="15" height="14" viewBox="0 0 15 14" fill="none" xmlns="http://www.w3.org/2000/svg">
<g clip-path="url(#clip0_833_124)">
<mask id="mask0_833_124" style="mask-type:luminance" maskUnits="userSpaceOnUse" x="0" y="-1" width="15" height="16">
<path d="M0.535349 0.374827H13.7847V13.6249H0.535349V0.374827Z" fill="white" stroke="white" stroke-width="0.75063"/>
</mask>
<g mask="url(#mask0_833_124)">
<path d="M6.35498 3.61768L7.16041 4.4231L7.96583 3.61768" stroke="#00264B" stroke-width="0.675567" stroke-linecap="round" stroke-linejoin="round"/>
<path d="M7.1604 7.64481V4.4231" stroke="#00264B" stroke-width="0.675567" stroke-linecap="round" stroke-linejoin="round"/>
<path d="M12.6911 3.61768H13.2278C13.3702 3.61768 13.5066 3.67422 13.6073 3.77487C13.7079 3.87552 13.7645 4.01204 13.7645 4.15438V12.2612C13.7645 12.4035 13.7079 12.54 13.6073 12.6407C13.5066 12.7413 13.3702 12.7979 13.2278 12.7979H9.04002C8.96875 12.7979 8.90042 12.8262 8.85003 12.8766C8.79963 12.927 8.77132 12.9953 8.77132 13.0666C8.77132 13.209 8.71478 13.3455 8.61412 13.4461C8.51347 13.5468 8.37694 13.6033 8.23459 13.6033H6.08556C6.01508 13.6033 5.94529 13.5894 5.88017 13.5625C5.81506 13.5355 5.75587 13.496 5.70603 13.4461C5.65619 13.3963 5.61668 13.3371 5.5897 13.272C5.56273 13.2069 5.54884 13.1371 5.54884 13.0666C5.54884 12.9953 5.52052 12.927 5.47013 12.8766C5.41973 12.8262 5.3514 12.7979 5.28013 12.7979H1.09234C0.949997 12.7979 0.813506 12.7413 0.712855 12.6407C0.612204 12.54 0.555664 12.4035 0.555664 12.2612V4.15438C0.555664 4.08377 0.569603 4.01386 0.596668 3.94864C0.623734 3.88343 0.663408 3.8242 0.713404 3.77434C0.763401 3.72449 0.822716 3.68498 0.888005 3.6581C0.953294 3.63122 1.02324 3.61748 1.09385 3.61768H1.63057" stroke="#00264B" stroke-width="0.675567" stroke-linecap="round" stroke-linejoin="round"/>
<path d="M4.0371 2.81226H1.62683V11.7237H6.3513C6.56491 11.7237 6.76977 11.8086 6.92082 11.9596C7.07187 12.1107 7.15672 12.3155 7.15672 12.5292C7.15672 12.3155 7.24158 12.1107 7.39263 11.9596C7.54367 11.8086 7.74853 11.7237 7.96214 11.7237H12.6866V2.81226H10.2763" stroke="#00264B" stroke-width="0.6" stroke-linecap="round" stroke-linejoin="round"/>
<path d="M7.1604 9.25488V13.6033" stroke="#00264B" stroke-width="0.675567" stroke-linecap="round" stroke-linejoin="round"/>
<path d="M8.36818 7.64404H5.9519" stroke="#00264B" stroke-width="0.675567" stroke-linecap="round" stroke-linejoin="round"/>
<mask id="path-8-inside-1_833_124" fill="white">
<path d="M7.42917 0.396655C7.42917 0.467926 7.40086 0.536277 7.35047 0.586673C7.30007 0.637069 7.23172 0.66538 7.16045 0.66538C7.08918 0.66538 7.02083 0.637069 6.97043 0.586673C6.92004 0.536277 6.89172 0.467926 6.89172 0.396655C6.89172 0.325385 6.92004 0.257033 6.97043 0.206637C7.02083 0.156242 7.08918 0.12793 7.16045 0.12793C7.23172 0.12793 7.30007 0.156242 7.35047 0.206637C7.40086 0.257033 7.42917 0.325385 7.42917 0.396655Z"/>
</mask>
<path d="M7.42917 0.396655C7.42917 0.467926 7.40086 0.536277 7.35047 0.586673C7.30007 0.637069 7.23172 0.66538 7.16045 0.66538C7.08918 0.66538 7.02083 0.637069 6.97043 0.586673C6.92004 0.536277 6.89172 0.467926 6.89172 0.396655C6.89172 0.325385 6.92004 0.257033 6.97043 0.206637C7.02083 0.156242 7.08918 0.12793 7.16045 0.12793C7.23172 0.12793 7.30007 0.156242 7.35047 0.206637C7.40086 0.257033 7.42917 0.325385 7.42917 0.396655Z" fill="#F17D10"/>
<path d="M6.67854 0.396655C6.67854 0.268842 6.72932 0.146269 6.81969 0.0558972L7.88124 1.11745C8.07241 0.926285 8.1798 0.667009 8.1798 0.396655H6.67854ZM6.81969 0.0558972C6.91006 -0.0344769 7.03264 -0.0852495 7.16045 -0.0852495V1.41601C7.4308 1.41601 7.69008 1.30861 7.88124 1.11745L6.81969 0.0558972ZM7.16045 -0.0852495C7.28826 -0.0852495 7.41083 -0.0344769 7.50121 0.0558972L6.43966 1.11745C6.63082 1.30861 6.8901 1.41601 7.16045 1.41601V-0.0852495ZM7.50121 0.0558972C7.59158 0.146269 7.64235 0.268842 7.64235 0.396655H6.14109C6.14109 0.667009 6.24849 0.926285 6.43966 1.11745L7.50121 0.0558972ZM7.64235 0.396655C7.64235 0.524468 7.59158 0.647041 7.50121 0.737413L6.43966 -0.324138C6.24849 -0.132975 6.14109 0.126301 6.14109 0.396655H7.64235ZM7.50121 0.737413C7.41083 0.827787 7.28826 0.87856 7.16045 0.87856V-0.6227C6.8901 -0.6227 6.63082 -0.515304 6.43966 -0.324138L7.50121 0.737413ZM7.16045 0.87856C7.03264 0.87856 6.91006 0.827787 6.81969 0.737413L7.88124 -0.324138C7.69008 -0.515304 7.4308 -0.6227 7.16045 -0.6227V0.87856ZM6.81969 0.737413C6.72932 0.647041 6.67854 0.524468 6.67854 0.396655H8.1798C8.1798 0.126301 8.07241 -0.132975 7.88124 -0.324138L6.81969 0.737413Z" fill="#00264B" mask="url(#path-8-inside-1_833_124)"/>
<path d="M5.97295 0.623309C5.50248 0.812744 5.08267 1.10929 4.74687 1.48939C4.41108 1.86948 4.16856 2.32266 4.03858 2.8129C4.01362 2.90991 3.99358 3.00811 3.97853 3.10714C3.87466 3.75512 3.97152 4.41936 4.25611 5.01068C4.5407 5.60201 4.9994 6.0921 5.57061 6.41517C5.68853 6.48517 5.78588 6.58506 5.85284 6.70473C5.91979 6.8244 5.95397 6.95963 5.95193 7.09674V8.44788C5.95174 8.5539 5.97247 8.65892 6.01295 8.75691C6.05344 8.8549 6.11286 8.94393 6.18783 9.0189C6.2628 9.09387 6.35184 9.1533 6.44983 9.19378C6.54782 9.23426 6.65284 9.255 6.75886 9.2548H7.56429C7.7779 9.2548 7.98276 9.16995 8.13381 9.0189C8.28485 8.86785 8.36971 8.66299 8.36971 8.44938V7.09824C8.36702 6.96191 8.40029 6.82727 8.46618 6.70788C8.53206 6.58849 8.62824 6.48857 8.74503 6.41817C9.24136 6.13834 9.65438 5.7316 9.94179 5.23962C10.2292 4.74764 10.3807 4.1881 10.3807 3.61832C10.381 3.3464 10.3469 3.07553 10.2793 2.81215C10.1519 2.32093 9.91054 1.86666 9.57471 1.48622C9.23887 1.10578 8.81807 0.809889 8.34645 0.622559" stroke="#00264B" stroke-width="0.675567" stroke-linecap="round" stroke-linejoin="round"/>
</g>
</g>
<defs>
<clipPath id="clip0_833_124">
<rect width="14" height="14.0008" fill="white" transform="translate(0.160034 -0.000488281)"/>
</clipPath>
</defs>
</svg>
