<svg width="14" height="14" viewBox="0 0 14 14" fill="none" xmlns="http://www.w3.org/2000/svg">
<path d="M11.7433 2.6324C12.8414 3.82157 13.4501 5.38139 13.4477 6.99998C13.4477 8.70945 12.7687 10.3489 11.5599 11.5577C10.3511 12.7664 8.71168 13.4455 7.00221 13.4455C5.29275 13.4455 3.65331 12.7664 2.44453 11.5577C1.23576 10.3489 0.556641 8.70945 0.556641 6.99998C0.556641 5.29052 1.23576 3.65107 2.44453 2.4423C3.65331 1.23353 5.29275 0.554443 7.00221 0.554443C7.26539 0.554404 7.5283 0.570305 7.78956 0.602054" stroke="#00264B" stroke-width="0.6" stroke-linecap="round" stroke-linejoin="round"/>
<path d="M4.4753 2.98702C5.38474 2.41493 6.46149 2.16859 7.52921 2.28835C8.59693 2.40811 9.59235 2.88687 10.3525 3.64622C11.2415 4.53535 11.741 5.74125 11.741 6.99864C11.741 8.25603 11.2415 9.46192 10.3525 10.351C9.46333 11.2401 8.25743 11.7396 7.00004 11.7396C5.74265 11.7396 4.53676 11.2401 3.64763 10.351C2.88632 9.59041 2.40635 8.59346 2.28656 7.52397C2.16677 6.45449 2.41428 5.37606 2.98843 4.46583" stroke="#00264B" stroke-width="0.6" stroke-linecap="round" stroke-linejoin="round"/>
<path d="M11.6979 3.59037V2.59497H12.6933" stroke="#00264B" stroke-width="0.6" stroke-linecap="round" stroke-linejoin="round"/>
<path d="M6.35986 7.00002C6.35986 7.1698 6.42731 7.33263 6.54736 7.45268C6.66741 7.57274 6.83024 7.64018 7.00002 7.64018C7.1698 7.64018 7.33263 7.57274 7.45268 7.45268C7.57274 7.33263 7.64018 7.1698 7.64018 7.00002C7.64018 6.83024 7.57274 6.66741 7.45268 6.54736C7.33263 6.42731 7.1698 6.35986 7.00002 6.35986C6.83024 6.35986 6.66741 6.42731 6.54736 6.54736C6.42731 6.66741 6.35986 6.83024 6.35986 7.00002Z" stroke="#00264B" stroke-width="0.6" stroke-linecap="round" stroke-linejoin="round"/>
<path d="M10.7304 7.00439H10.4073" stroke="#00264B" stroke-width="0.6" stroke-linecap="round" stroke-linejoin="round"/>
<path d="M3.27258 6.99634H3.59559" stroke="#00264B" stroke-width="0.6" stroke-linecap="round" stroke-linejoin="round"/>
<path d="M7.00439 3.27246V3.59547" stroke="#00264B" stroke-width="0.6" stroke-linecap="round" stroke-linejoin="round"/>
<path d="M6.99634 10.7302V10.4072" stroke="#00264B" stroke-width="0.6" stroke-linecap="round" stroke-linejoin="round"/>
<path d="M6.5474 6.5474L5.5022 5.5022" stroke="#00264B" stroke-width="0.6" stroke-linecap="round" stroke-linejoin="round"/>
<path d="M7.45337 6.54743L9.40168 4.59692" stroke="#00264B" stroke-width="0.6" stroke-linecap="round" stroke-linejoin="round"/>
</svg>
